<?xml version="1.0" encoding="utf-8"?>
<!-- Generator: Adobe Illustrator 23.0.1, SVG Export Plug-In . SVG Version: 6.00 Build 0)  -->
<svg version="1.1" id="Layer_1" xmlns="http://www.w3.org/2000/svg" xmlns:xlink="http://www.w3.org/1999/xlink" x="0px" y="0px"
	 viewBox="0 0 120 120" style="enable-background:new 0 0 120 120;" xml:space="preserve">
<style type="text/css">
	.st0{fill:none;stroke:#A67E5C;stroke-width:3;stroke-linecap:round;stroke-linejoin:round;}
</style>
<g>
	<g>
		<g>
			<g>
				<line class="st0" x1="59.9" y1="79.4" x2="44.5" y2="98.6"/>
				<path class="st0" d="M64.2,49.4l25.6-32c0,0,9,11.8-4.8,30.8L74,62"/>
				<line class="st0" x1="40.4" y1="79.2" x2="46.5" y2="71.6"/>
			</g>
			<g>
				<path class="st0" d="M79.6,79.2L30.3,17.3c0,0-9,11.8,4.8,30.8l40.4,50.5"/>
			</g>
		</g>
		<circle class="st0" cx="84.7" cy="90.6" r="12.2"/>
		<path class="st0" d="M47.5,90.6c0,6.7-5.5,12.2-12.2,12.2s-12.2-5.5-12.2-12.2s5.5-12.2,12.2-12.2S47.5,83.9,47.5,90.6z"/>
	</g>
	<g>
		<g>
			<circle class="st0" cx="59.9" cy="66.7" r="1.2"/>
		</g>
	</g>
</g>
</svg>
