<?xml version="1.0" encoding="utf-8"?>
<!-- Generator: Adobe Illustrator 23.0.1, SVG Export Plug-In . SVG Version: 6.00 Build 0)  -->
<svg version="1.1" id="Layer_1" xmlns="http://www.w3.org/2000/svg" xmlns:xlink="http://www.w3.org/1999/xlink" x="0px" y="0px"
	 viewBox="0 0 120 120" style="enable-background:new 0 0 120 120;" xml:space="preserve">
<style type="text/css">
	.st0{fill:none;stroke:#A67E5C;stroke-width:3;stroke-linecap:round;stroke-linejoin:round;stroke-miterlimit:10;}
	.st1{fill:none;stroke:#A67E5C;stroke-width:3;stroke-linejoin:round;stroke-miterlimit:10;}
	.st2{fill:none;stroke:#A67E5C;stroke-width:3;stroke-linecap:round;stroke-linejoin:round;}
</style>
<g>
	<path class="st0" d="M87.7,105.5c0,2.5-2,4.5-4.5,4.5H36.8c-2.5,0-4.5-2-4.5-4.5v-91c0-2.5,2-4.5,4.5-4.5h46.3c2.5,0,4.5,2,4.5,4.5
		L87.7,105.5L87.7,105.5z"/>
	<line class="st1" x1="32.3" y1="89.5" x2="87.7" y2="89.5"/>
	<line class="st0" x1="56.2" y1="99.7" x2="63.8" y2="99.7"/>
	<polygon class="st2" points="60,33 64.2,45.8 77.6,45.8 66.7,53.7 70.9,66.5 60,58.6 49.1,66.5 53.3,53.7 42.4,45.8 55.8,45.8 	"/>
</g>
</svg>
