<?xml version="1.0" encoding="utf-8"?>
<!-- Generator: Adobe Illustrator 23.0.2, SVG Export Plug-In . SVG Version: 6.00 Build 0)  -->
<svg version="1.1" id="Layer_1" xmlns="http://www.w3.org/2000/svg" xmlns:xlink="http://www.w3.org/1999/xlink" x="0px" y="0px"
	 viewBox="0 0 120 120" style="enable-background:new 0 0 120 120;" xml:space="preserve">
<style type="text/css">
	.st0{fill:none;stroke:#A67E5C;stroke-width:3;stroke-linecap:round;stroke-linejoin:round;stroke-miterlimit:10;}
</style>
<g>
	<path class="st0" d="M102.1,48.5c1,3.7,1.5,7.5,1.5,11.5c0,24.9-20.1,45-45,45s-45-20.1-45-45s20.1-45,45-45
		c17.3,0,32.3,9.7,39.8,24.1"/>
	<polyline class="st0" points="112.4,54.8 101.8,47.2 94.1,57.9 	"/>
	<g>
		<path class="st0" d="M37.5,86.9V74.8c0-7.5,5.4-10.3,12.5-10.3l8.6,9.5l7.9-9.5c7,0,13,2.8,13,10.3v12.1"/>
		<path class="st0" d="M68.8,46.1c0,5.7-4.7,10.5-10.3,10.5S48.3,52,48.3,46.1v-3.8c0-5.7,4.7-10.5,10.3-10.5s10.3,4.7,10.3,10.5
			L68.8,46.1L68.8,46.1z"/>
	</g>
</g>
</svg>
