<svg xmlns="http://www.w3.org/2000/svg" xmlns:xlink="http://www.w3.org/1999/xlink" viewBox="-30.368 -37.168 606.803 392.443"><path fill="#1F191A" d="M576.435 335.488c0 10.928-8.859 19.787-19.787 19.787H-10.581c-10.928 0-19.787-8.859-19.787-19.787V-17.381c0-10.929 8.859-19.787 19.787-19.787h567.229c10.928 0 19.787 8.858 19.787 19.787v352.869z"/><defs><path id="a" d="M576.435 335.488c0 10.928-8.859 19.787-19.787 19.787H-10.581c-10.928 0-19.787-8.859-19.787-19.787V-17.381c0-10.929 8.859-19.787 19.787-19.787h567.229c10.928 0 19.787 8.858 19.787 19.787v352.869z"/></defs><clipPath id="b"><use xlink:href="#a" overflow="visible"/></clipPath><g opacity=".8" clip-path="url(#b)"><path fill="#2E2B2D" d="M387.785 132.199h-3.98c-.568 0-1.121-.578-1.121-1.149 0-.274 0-.561.275-.561l34.351-56.67 50.836 66.668 1.703 2.289 39.742-64.941 31.812 52.94c0 .274.287.274.287.56 0 .57-.57.864-.85.864h-.861c-1.711 0-3.115 1.434-3.115 3.151 0 1.719 1.121 3.134 3.115 3.134h28.412c1.689 0 3.105-1.415 3.105-3.134 0-1.718-1.416-3.151-3.105-3.151h-2.557c-1.426 0-2.269-.578-2.83-1.424l-46.861-77.559-39.76 65.814-7.383-9.724-45.156-58.956-47.977 78.707c-1.145 1.719-3.404 3.143-5.978 3.143h-2.545c-1.701 0-3.137 1.434-3.137 3.151 0 1.719 1.152 3.134 2.844 3.134h21.297c1.717 0 3.133-1.415 3.133-3.134-.571-1.718-1.995-3.152-3.696-3.152zM406.812 358.832c0 3.44 2.848 6.289 6.252 6.289 1.139 0 1.992-.275 2.828-.855 5.689-3.15 6.82-12.305-.568-18.021-6.535-5.162-13.908-4.574-13.908-4.574-12.498 0-22.713 10.291-22.713 23.451 0 4.574 1.131 8.869 3.402 12.324 1.426 2.268 3.123 4.271 5.385 6.283 0 0 10.525 11.736 35.5 5.154 16.756-4.576 30.959-8.879 44.027-9.447h1.406c13.357.277 27.814 4.871 45.148 9.447 24.992 6.582 35.23-5.154 35.23-5.154 2.254-1.707 3.963-3.725 5.387-6.283 2.281-3.734 3.385-7.75 3.385-12.324 0-12.875-10.213-23.451-22.685-23.451 0 0-7.4-.588-13.918 4.574-7.398 5.717-5.982 14.871-.588 18.021.873.58 1.711.855 2.842.855 3.42 0 6.277-2.85 6.277-6.289 0-3.424-2.858-6.303-6.277-6.303-.562 0-.846 0-1.408.287 2.254-3.707 7.686-6.002 13.072-6.002 9.934 0 17.877 8.316 17.877 18.307 0 3.738-1.139 7.168-2.83 10.035 0 0-7.685 13.727-23.291 9.994-14.203-3.129-30.406-12.861-42.033-17.174-4.826-2-10.496-2.856-16.188-2.856-5.957 0-11.342 1.148-16.461 2.856-11.639 4.312-27.824 14.045-42.035 17.174-15.898 3.449-23.273-9.994-23.273-9.994-1.709-2.867-2.85-6.297-2.85-10.035 0-10.291 7.961-18.307 17.898-18.307 5.109 0 10.504 2.295 13.061 6.002-.295 0-.855-.287-1.414-.287-3.689 0-6.537 2.879-6.537 6.303z"/><path fill="#2E2B2D" d="M468.146 329.928c4.82-8.31 9.645-16.867 16.748-23.178 7.115-6.59 65.6-22.034 77.807-25.464 24.139-6.59 32.365-21.761 32.365-34.617V24.903H340.66v221.481c0 12.865 8.521 28.028 32.363 34.616 11.068 3.151 28.965 8.022 45.141 12.874 19.035 6.01 30.396 7.158 41.738 22.881 2.84 3.741 8.244 13.173 8.244 13.173zM376.15 271.85c-20.445-5.734-25.272-17.461-25.272-25.465V34.609h235.113v212.059c0 8.005-4.842 19.729-25.273 25.466-11.07 3.15-29.248 8.005-45.436 12.873-21.004 6.59-34.072 8.59-46.574 26.611-2.549-3.443-6.242-8.305-10.508-12.027-9.64-8.566-67.29-23.745-82.05-27.741z"/><path fill="#2E2B2D" d="M605.004 305.324c34.945-21.456 53.105-45.211 53.953-74.975.295-13.443-2.842-24.323-8.787-35.479 0 0-11.932-17.175-16.758-24.886-9.668-14.61-15.34-32.631-15.34-53.232 0-17.745 4.264-34.065 11.656-47.509 10.779-20.025 22.428-35.196 22.428-35.196 9.07-13.167 18.162-47.214-17.336-65.252-21.572-11.165-47.98-1.71-53.377.303-14.193 4.861-41.17 20.015-63.322 20.015-2.545 0-4.549 0-6.525-.276 5.111-6.001 1.977-15.447 1.977-15.447-3.418-10.024 0-19.463 0-19.463 2.857-9.741-2.27-13.168-2.27-13.168-7.389-5.439-13.621 1.149-13.621 1.149-4.543 3.437-17.316 16.604-17.316 16.604-1.703 1.709-2.574.284-2.574.284-.836-1.166 1.146-3.151 1.146-3.151 2.273-2.866 13.072-15.163 13.072-15.163 7.934-9.74 1.691-16.88 1.691-16.88-6.535-8.03-17.051-2.573-17.051-2.573-5.379 2.288-7.941 1.7-7.941 1.7s-2.549.285-7.943-1.7c0 0-10.219-5.173-16.754 2.573 0 0-6.25 7.425 1.709 16.88 0 0 10.772 12.297 13.055 15.163 0 0 1.99 1.985 1.146 3.151 0 0-1.146 1.132-2.574-.284 0 0-12.483-13.168-17.309-16.604 0 0-6.242-6.304-13.631-1.149 0 0-5.117 3.427-2.27 13.168 0 0 3.4 9.438 0 19.463 0 0-3.402 9.446 1.986 15.447-1.986.276-3.98.276-6.535.276-22.142 0-49.121-15.153-63.314-20.015-5.111-1.71-31.812-11.165-53.402-.303-35.469 18.038-26.389 52.085-17.309 65.252 0 0 11.646 15.448 22.43 35.196 7.381 13.443 11.635 29.764 11.635 47.509 0 20.602-5.662 38.622-15.33 53.232-4.826 7.711-16.746 24.886-16.746 24.886-5.977 11.156-9.082 22.036-8.807 35.479.846 29.764 19.035 53.519 53.947 74.975 1.984 1.123 3.691 2.281 5.402 3.137 3.115 2 7.389 4.307 10.793 6.018 6.816 3.16 20.734 7.139 31.518 8.299 5.395.568 17.316 2.572 21.297 3.434 1.697.305 4.262.865 6.523 1.711 3.697.857 6.537 2.006 9.938 3.721 7.381 4.008 12.207 12.027 12.207 21.174 0 2.014-.266 3.723-.555 5.447-1.699 8.006-8.525 13.73-16.752 13.73-2.559 0-5.131-.568-7.393-1.711-2.83-1.424-4.541-4.307-4.541-7.441 0-.57 0-1.148.285-1.727 0-1.426-1.139-2.852-2.563-2.852-1.406 0-2.549 1.141-2.549 2.852 0 .578-.283 1.441-.283 2.002 0 4.859 2.272 9.172 6.252 11.744 3.398 2.002 7.104 3.152 11.076 3.152 11.625 0 21.01-8.879 22.15-20.338.268-1.422.268-2.846.268-4.272 0-11.176-5.951-20.906-15.031-26.051-2.572-1.443-5.127-2.281-7.672-3.152-.857-.295-1.998-.57-3.137-.855-9.65-2.574-9.08-1.996-35.773-6.59-12.768-1.984-23.861-6.568-31.803-10.852-2.547-1.434-5.68-3.43-8.805-5.441-19.58-12.596-38.613-26.345-40.609-55.805-1.131-16.596 3.402-29.481 9.084-38.632l12.803-20.594c1.975-3.722 3.684-7.159 5.387-10.311 7.379-17.736 12.205-39.771 12.205-62.386 0-31.188-8.227-59.519-21.582-80.122-5.965-9.153-9.652-18.306-10.223-28.332-.846-16.594 11.932-29.754 30.113-29.754 18.164 0 19.016 1.424 72.676 18.885 13.064 4.301 25.27 3.149 32.652.578 2.846 0 5.973-.871 9.088-3.722l9.1-8.877c1.123-.561 1.701-.276 1.123.562 0 0-8.789 12.322-9.375 13.746 0 0-8.496 10.88-1.977 17.46 0 0 6.25 6.276 17.033.276 0 0 3.978-2.279 9.09-2.564 5.392 0 9.08 2.564 9.08 2.564 10.508 6 17.023-.276 17.023-.276 6.555-6.58-1.959-17.46-1.959-17.46-.855-1.424-9.385-13.746-9.385-13.746.563-1.709 1.123-.562 1.123-.562l9.109 8.877c3.123 3.144 6.258 4.007 9.072 3.722 7.396 2.571 19.605 3.723 32.666-.578 53.375-17.745 54.516-18.885 72.695-18.885 17.877 0 30.672 13.16 30.086 29.754-.545 10.026-3.98 19.179-10.215 28.332-13.352 20.602-21.58 48.934-21.58 80.122 0 22.614 4.824 44.649 12.209 62.386 1.707 3.151 3.416 6.589 5.393 10.311l12.785 20.594c5.691 9.15 10.23 22.036 9.072 38.632-1.977 29.46-21.012 43.209-40.588 55.805-3.412 2.012-6.27 4.008-8.807 5.441-7.941 4.283-19.027 8.574-31.813 10.852-26.674 4.301-26.123 4.016-35.766 6.59-1.441.285-2.277.561-3.133.855-2.547.871-5.111 2.01-7.676 3.152-8.779 5.144-15.029 14.875-15.029 26.051 0 1.426 0 2.85.268 4.272 1.141 11.459 10.809 20.338 22.152 20.338 3.986 0 7.969-1.15 11.066-3.152 3.705-2.572 6.266-6.588 6.266-11.744 0-.561 0-1.424-.293-2.002 0-1.426-1.146-2.852-2.555-2.852-1.424 0-2.537 1.141-2.537 2.852 0 .578.266 1.156.266 1.727 0 3.428-1.707 6.293-4.539 7.441-2.277 1.143-4.836 1.711-7.389 1.711-8.244 0-15.049-6.017-16.756-13.73-.295-1.725-.555-3.738-.555-5.447 0-9.146 4.836-17.166 12.199-21.174 3.123-1.715 6.24-2.863 9.938-3.721 2.26-.568 4.834-1.141 6.533-1.711 3.982-.861 15.91-2.865 21.307-3.434 10.771-.875 24.697-5.139 31.51-8.299 3.4-1.418 7.379-4.018 10.783-6.018-.843-.856.866-2.014 2.845-3.137zM505.355-14.877s-4.834 4.577-11.932-1.157c0 0-7.967-5.717-10.789-9.723 0 0-1.711-2.866-3.973-1.441 0 0-2.012.871-.283 5.163 0 0 9.082 15.724 10.496 19.749 0 0 2.271 5.431-.846 8.279 0 0-5.109 4.292-11.074-.56 0 0-4.258-4.578-8.809-4.578-4.822 0-8.803 4.578-8.803 4.578-5.957 4.852-11.076.56-11.076.56-3.127-2.849-.855-8.279-.855-8.279 1.426-4.301 10.523-19.749 10.523-19.749 1.986-4.292-.295-5.163-.295-5.163-2.277-1.122-3.979 1.441-3.979 1.441-2.84 3.722-10.783 9.723-10.783 9.723-7.379 5.734-11.92 1.157-11.92 1.157-4.551-3.73-.854-11.734 0-14.6 2.545-7.436-.854-15.171-.854-15.171-1.436-6.59.854-7.711.854-7.711 3.953-2.866 8.502 0 8.502 0 5.404 2.849 14.488 13.158 14.488 13.158 3.398 3.419 6.531.855 6.531.855 3.973-3.722-2.279-10.311-4.262-12.893-5.111-6.285-7.096-10.577-7.096-10.577-2.549-6.304 1.424-8.867 1.424-8.867 3.971-2.868 9.082-.579 9.082-.579 5.109 2.573 8.225 2.573 8.518 2.573 0 0 3.125 0 8.504-2.573 0 0 5.131-2.289 9.098.579 0 0 3.975 2.288 1.418 8.867 0 0-1.986 4.292-7.098 10.577-1.975 2.582-8.225 9.171-4.262 12.893 0 0 3.131 2.868 6.535-.855 0 0 9.107-10.024 14.494-13.158 0 0 4.824-2.866 8.52 0 0 0 2.26 1.121.855 7.711 0 0-3.418 7.735-.855 15.171.858 2.866 4.541 11.147.002 14.6z"/><path fill="#2E2B2D" d="M509.592 258.966c16.768 0 33.523-7.719 33.523-32.916 0-19.178-17.604-33.192-35.217-33.192l-39.189-.284h-38.604c-6.262 0-11.096-5.164-11.096-11.45s4.834-11.432 11.096-11.432h83.744c3.133 0 5.414 1.139 7.406 3.142l4.541 3.732c.283.285.848.569 1.408.569 1.691 0 2.838-1.441 2.838-2.866 0-.569-.541-1.71-.844-2.013l-10.781-14.013c-.582-.857-1.15-.857-1.988-.857-1.146 0-1.992.857-2.58 1.711-.836 2.297-3.1 4.006-5.951 4.006h-79.521c-14.174 0-25.83 11.734-25.83 26.612 0 14.61 11.361 26.347 25.83 26.612l39.476.283h31.52c14.762 0 23.289 6.876 23.289 17.472 0 9.996-7.379 18.001-19.301 18.001h-84.619c-3.133 0-5.678-2.547-5.678-5.698 0-1.156.551-2.307 1.139-3.151.266-.587.561-1.158.561-1.729 0-1.706-1.414-3.151-3.133-3.151-.848 0-1.418.285-1.971.873l-16.486 17.166c-.564.568-1.123 1.425-1.123 2.296 0 1.985 1.416 3.145 3.115 3.145.855 0 1.424-.294 2.281-1.159 1.121-.846 1.994-1.424 3.113-1.424h109.031v-.285z"/></g><path fill="#FFF" d="M258.989 54.819h-.721c-.102 0-.203-.104-.203-.207 0-.051 0-.102.051-.102l6.213-10.25 9.193 12.058.309.414 7.188-11.745 5.754 9.574c0 .051.051.051.051.102 0 .104-.102.156-.152.156h-.156c-.309 0-.564.26-.564.57 0 .311.203.566.564.566h5.139c.307 0 .562-.256.562-.566 0-.311-.256-.57-.562-.57h-.463c-.258 0-.41-.104-.512-.258l-8.475-14.026-7.191 11.902-1.336-1.758-8.166-10.663-8.68 14.234c-.205.311-.615.568-1.08.568h-.459c-.309 0-.568.26-.568.57 0 .311.207.566.516.566h3.852c.311 0 .564-.256.564-.566-.103-.309-.361-.569-.668-.569zM262.431 95.81c0 .621.514 1.137 1.129 1.137.207 0 .361-.05.514-.155 1.027-.569 1.232-2.225-.105-3.259-1.18-.934-2.516-.828-2.516-.828-2.258 0-4.105 1.862-4.105 4.242 0 .827.205 1.604.615 2.229.258.41.564.773.975 1.137 0 0 1.902 2.122 6.42.933 3.029-.828 5.6-1.605 7.961-1.709h.256c2.414.05 5.029.881 8.166 1.709 4.52 1.189 6.371-.933 6.371-.933.408-.31.717-.673.975-1.137.412-.675.611-1.401.611-2.229 0-2.329-1.848-4.242-4.104-4.242 0 0-1.338-.105-2.516.828-1.338 1.034-1.084 2.689-.105 3.259.156.106.309.155.512.155.619 0 1.135-.516 1.135-1.137 0-.62-.516-1.141-1.135-1.141-.102 0-.152 0-.254.052.408-.67 1.389-1.085 2.363-1.085 1.799 0 3.234 1.504 3.234 3.311 0 .676-.207 1.296-.512 1.814 0 0-1.391 2.483-4.213 1.809-2.568-.567-5.5-2.327-7.602-3.106-.873-.362-1.898-.517-2.928-.517-1.078 0-2.053.207-2.979.517-2.103.779-5.031 2.539-7.602 3.106-2.875.623-4.209-1.809-4.209-1.809-.311-.518-.516-1.139-.516-1.814 0-1.861 1.44-3.311 3.236-3.311.926 0 1.9.415 2.363 1.085-.053 0-.154-.052-.256-.052-.666 0-1.179.521-1.179 1.141z"/><path fill="#FFF" d="M273.523 90.581c.873-1.503 1.746-3.051 3.029-4.192 1.287-1.191 11.865-3.985 14.072-4.605 4.365-1.191 5.854-3.936 5.854-6.261V35.414H250.464v40.058c0 2.326 1.543 5.068 5.855 6.261 2.002.569 5.236 1.45 8.164 2.328 3.441 1.087 5.496 1.295 7.549 4.139.514.675 1.491 2.381 1.491 2.381zm-16.639-10.504c-3.697-1.037-4.57-3.158-4.57-4.605V37.169h42.524v38.354c0 1.448-.877 3.568-4.572 4.605-2.002.57-5.289 1.448-8.217 2.329-3.799 1.191-6.162 1.554-8.422 4.813-.463-.623-1.131-1.502-1.9-2.175-1.747-1.55-12.173-4.295-14.843-5.018z"/><path fill="#FFF" d="M298.275 86.132c6.32-3.881 9.605-8.178 9.758-13.56.053-2.432-.514-4.399-1.588-6.417 0 0-2.158-3.106-3.031-4.501-1.748-2.643-2.775-5.901-2.775-9.628 0-3.209.772-6.16 2.109-8.592 1.949-3.622 4.055-6.365 4.055-6.365 1.643-2.382 3.285-8.54-3.135-11.802-3.902-2.019-8.678-.31-9.652.055-2.568.879-7.447 3.619-11.453 3.619-.461 0-.822 0-1.18-.05.924-1.085.357-2.794.357-2.794-.619-1.812 0-3.52 0-3.52.516-1.762-.412-2.382-.412-2.382-1.334-.983-2.463.208-2.463.208-.822.621-3.133 3.003-3.133 3.003-.307.31-.463.052-.463.052-.154-.211.205-.57.205-.57.412-.519 2.365-2.742 2.365-2.742 1.433-1.762.305-3.053.305-3.053-1.182-1.453-3.082-.466-3.082-.466-.975.414-1.435.308-1.435.308s-.463.052-1.438-.308c0 0-1.848-.936-3.029.466 0 0-1.133 1.343.307 3.053 0 0 1.949 2.224 2.361 2.742 0 0 .361.359.207.57 0 0-.207.204-.463-.052 0 0-2.258-2.382-3.133-3.003 0 0-1.129-1.141-2.465-.208 0 0-.926.62-.41 2.382 0 0 .613 1.707 0 3.52 0 0-.615 1.709.359 2.794-.359.05-.721.05-1.182.05-4.006 0-8.885-2.74-11.453-3.619-.924-.31-5.752-2.02-9.656-.055-6.416 3.262-4.773 9.42-3.131 11.802 0 0 2.105 2.793 4.057 6.365 1.334 2.432 2.104 5.383 2.104 8.592 0 3.727-1.023 6.985-2.771 9.628-.873 1.395-3.029 4.501-3.029 4.501-1.08 2.018-1.643 3.985-1.594 6.417.154 5.383 3.443 9.68 9.758 13.56.359.202.668.412.979.566.562.362 1.334.779 1.951 1.089 1.232.571 3.75 1.291 5.699 1.5.975.104 3.133.466 3.852.622.309.055.771.156 1.182.309.666.154 1.182.362 1.797.673 1.334.725 2.207 2.175 2.207 3.829 0 .364-.047.673-.1.985-.309 1.447-1.543 2.483-3.031 2.483-.461 0-.926-.104-1.336-.31-.514-.258-.82-.779-.82-1.346 0-.104 0-.208.049-.312 0-.258-.203-.516-.461-.516-.256 0-.463.206-.463.516 0 .104-.051.261-.051.362 0 .879.412 1.658 1.131 2.124.615.362 1.285.569 2.004.569 2.104 0 3.799-1.605 4.006-3.678.047-.258.047-.515.047-.772 0-2.021-1.074-3.781-2.717-4.712-.465-.261-.928-.412-1.389-.57-.154-.053-.359-.103-.566-.154-1.744-.466-1.643-.36-6.469-1.191-2.311-.359-4.316-1.188-5.754-1.963-.461-.26-1.027-.62-1.592-.984-3.541-2.278-6.984-4.765-7.344-10.093-.205-3.002.615-5.332 1.643-6.987l2.314-3.725c.357-.673.668-1.295.975-1.864 1.334-3.208 2.209-7.193 2.209-11.283 0-5.641-1.488-10.765-3.904-14.491-1.08-1.655-1.746-3.311-1.85-5.124-.152-3.001 2.158-5.382 5.445-5.382s3.439.258 13.146 3.416c2.361.777 4.57.57 5.904.104.516 0 1.08-.158 1.645-.673l1.645-1.605c.203-.102.309-.05.203.102 0 0-1.59 2.228-1.695 2.486 0 0-1.537 1.968-.355 3.157 0 0 1.129 1.136 3.078.05 0 0 .721-.412 1.647-.464.973 0 1.641.464 1.641.464 1.9 1.086 3.078-.05 3.078-.05 1.186-1.189-.354-3.157-.354-3.157-.156-.258-1.697-2.486-1.697-2.486.102-.31.203-.102.203-.102l1.646 1.605c.564.568 1.133.725 1.643.673 1.338.466 3.545.673 5.906-.104 9.654-3.209 9.861-3.416 13.148-3.416 3.234 0 5.547 2.381 5.441 5.382-.098 1.813-.721 3.469-1.848 5.124-2.414 3.727-3.902 8.851-3.902 14.491 0 4.09.873 8.075 2.207 11.283.309.569.619 1.191.977 1.864l2.312 3.725c1.029 1.655 1.85 3.985 1.641 6.987-.357 5.328-3.801 7.814-7.342 10.093-.617.364-1.133.725-1.592.984-1.438.774-3.441 1.551-5.754 1.963-4.824.777-4.725.726-6.467 1.191-.262.052-.414.102-.568.154-.461.158-.924.364-1.389.57-1.588.931-2.717 2.69-2.717 4.712 0 .258 0 .515.047.772.207 2.072 1.955 3.678 4.008 3.678.719 0 1.439-.207 2-.569.67-.466 1.135-1.192 1.135-2.124 0-.102 0-.258-.053-.362 0-.258-.209-.516-.463-.516-.258 0-.459.206-.459.516 0 .104.049.209.049.312 0 .619-.311 1.138-.822 1.346-.412.206-.873.31-1.336.31-1.49 0-2.721-1.089-3.029-2.483-.055-.312-.102-.677-.102-.985 0-1.654.875-3.104 2.207-3.829.564-.311 1.129-.519 1.797-.673.408-.103.873-.207 1.182-.309.719-.156 2.877-.519 3.853-.622 1.947-.157 4.467-.929 5.699-1.5.615-.257 1.334-.727 1.949-1.089-.153-.154.155-.364.513-.566zM280.253 28.22s-.875.827-2.16-.21c0 0-1.439-1.033-1.949-1.758 0 0-.309-.519-.719-.261 0 0-.363.157-.053.934 0 0 1.645 2.844 1.9 3.571 0 0 .41.982-.154 1.498 0 0-.924.776-2.004-.102 0 0-.77-.828-1.592-.828-.873 0-1.592.828-1.592.828-1.078.878-2.002.102-2.002.102-.566-.516-.156-1.498-.156-1.498.258-.777 1.902-3.571 1.902-3.571.359-.776-.053-.934-.053-.934-.412-.203-.719.261-.719.261-.514.673-1.951 1.758-1.951 1.758-1.334 1.037-2.156.21-2.156.21-.822-.675-.152-2.123 0-2.642.461-1.344-.152-2.743-.152-2.743-.26-1.192.152-1.395.152-1.395.717-.519 1.539 0 1.539 0 .979.515 2.621 2.38 2.621 2.38.615.618 1.18.154 1.18.154.721-.673-.41-1.864-.772-2.332-.924-1.137-1.283-1.912-1.283-1.912-.461-1.141.26-1.605.26-1.605.717-.519 1.643-.104 1.643-.104.922.466 1.486.466 1.539.466 0 0 .565 0 1.539-.466 0 0 .926-.414 1.647.104 0 0 .717.414.254 1.605 0 0-.359.775-1.283 1.912-.357.468-1.488 1.659-.772 2.332 0 0 .566.519 1.182-.154 0 0 1.646-1.814 2.623-2.38 0 0 .873-.519 1.541 0 0 0 .408.202.152 1.395 0 0-.617 1.399-.152 2.743.152.519.82 2.017 0 2.642z"/><path fill="#FFF" d="M281.019 77.747c3.033 0 6.062-1.396 6.062-5.953 0-3.469-3.184-6.004-6.369-6.004l-7.086-.051h-6.983c-1.133 0-2.008-.935-2.008-2.071 0-1.137.875-2.067 2.008-2.067h15.147c.566 0 .977.206 1.338.568l.822.675c.051.052.152.103.254.103.307 0 .514-.261.514-.519 0-.102-.1-.309-.152-.363l-1.951-2.535c-.105-.154-.207-.154-.359-.154-.207 0-.359.154-.465.31-.154.415-.562.725-1.078.725h-14.381c-2.564 0-4.672 2.122-4.672 4.812 0 2.643 2.055 4.765 4.672 4.813l7.139.052h5.701c2.67 0 4.211 1.243 4.211 3.159 0 1.809-1.334 3.256-3.49 3.256h-15.305c-.566 0-1.027-.461-1.027-1.03 0-.21.102-.417.207-.57.049-.106.102-.209.102-.312 0-.31-.256-.57-.566-.57-.154 0-.256.052-.357.158l-2.98 3.104c-.102.104-.203.258-.203.415 0 .359.256.569.562.569.154 0 .258-.054.412-.21.203-.152.359-.258.562-.258h19.721v-.052zM465.903 131.002c-.822-2.486-.256-4.968-.822-5.071-.516-.104-3.287 2.069-4.262 2.846-.924.828-18.129 13.405-19.516 14.388-1.283.933-2.773 1.968-5.19 2.122h-.615c-2.771 0-3.029-3.262-3.029-3.262s1.645-.776 3.645-1.913c2.211-1.295 4.984-3.002 6.576-4.709 3.08-3.211 2.924-4.763 2.924-6.008 0-1.29-1.693-3.673-4.516-3.673-1.387 0-3.184.521-4.934 1.451-1.848.98-3.695 2.432-4.928 4.191-1.438 2.016-3.801 6.886-3.852 11.281-2.158 1.659-7.346 4.401-8.578 4.193-1.383-.209-1.438-2.534-.408-5.846.977-3.316 7.756-11.854 8.061-12.267.256-.469.516-.931.256-1.141-.256-.206-1.434-1.604-1.744-1.502-.309.105-.926.517-1.953 1.35-1.076.824-3.898 2.224-6.521 1.913-2.67-.261-3.027-2.485-3.027-3.263 0-.774.104-2.018-.258-2.121-.357-.104-2.363.052-2.98.205-.615.211-.102.211-.822 4.71-.768 4.502-7.756 12.683-9.654 14.338-1.898 1.604-3.027 2.227-3.389.467-.205-.883-.875-6.209-.977-7.606-.051-.78.311-1.555.67-2.124.975-1.087 2.055-2.436 2.873-3.725.978-1.553.566-1.97-1.385-3.315-1.539-1.086-5.853-1.548-10.887.619-1.131.519-2.363 1.144-3.543 1.917-2.721 1.761-4.471 3.262-5.908 4.866-1.592.827-3.133 1.397-3.695 1.344-.668-.101-.926-1.757-.873-3.103.053-.258.053-.57.053-.828 0-7.507-9.4-6.21-12.383-5.383-.664.208-1.742.727-3.076 1.499-4.318 2.588-11.043 7.815-12.637 12.525-.975.879-2.822 2.381-5.084 3.467-1.332.671-2.771 1.193-3.951 1.607 1.332-1.244 2.517-2.588 3.492-3.985 2.822-4.038 2.668-11.49-1.541-15.423-1.697-1.605-3.854-3.42-5.756-5.228 5.033-4.917 8.682-8.485 8.783-8.596.412-.36.209-.669.209-.824-.055-.103-.414-.467-.568-.62-.152-.159-.461-.261-.613-.104l-9.504 8.384c-1.898-2.123-3.285-4.242-3.232-6.362.049-3.521 4.723-7.767 9.086-7.767 4.369 0 6.678 1.968 8.832 5.176 2.16 3.207 2.725 7.143 3.084 7.143l3.596-4.66s-7.604-10.09-15.307-10.09c-12.48 0-14.43 12.006-12.223 15.891.619 1.033 1.645 2.328 2.824 3.723-12.221 10.817-28.758 25.465-29.428 26.085-1.076.983-.973 1.657-.102 1.657h4.93l26.348-25.774c3.545 3.777 7.705 7.919 8.578 10.248 1.283 3.623-3.236 12.006-9.607 12.006-6.314 0-10.781-6.209-10.781-6.209l-4.008 4.396s.926 1.191 3.953 3.106c2.981 1.866 5.395 2.33 10.066 2.174 1.799-.05 3.65-.727 5.344-1.705.82-.106 1.951-.208 3.285-.416 3.082-.467 7.088-2.07 8.99-2.847.613 3.883 3.695 4.66 7.137 4.66 0 0 2.414.258 5.752-1.038.82-.312 1.746-.724 2.67-1.242 1.283-.721 6.984-4.296 10.324-8.949.459.151.975.257 1.541.257.822 0 1.9-.309 3.078-.779-.719 1.295-1.438 2.796-2.256 4.554-.617 1.295-.719 2.538-.67 3.575.053 1.03.256 3.931 2.67 3.931 2.363 0 7.137-3.777 9.037-5.482.566-.518 1.697-1.401 3.031-2.382.824-.62 1.697-1.293 2.518-1.916.611-.26.977.623 1.078 1.189.051.57.562 5.488 1.076 7.04.516 1.501 1.541 2.071 3.445 1.501 1.895-.57 6.623-4.295 9.859-7.765 3.232-3.466 7.807-11.388 7.807-11.388s.355.624 2 1.143c1.645.516 2.721.362 2.721.362s-2.156 4.138-3.186 6.57c-1.072 2.434-1.641 4.194-1.641 6.211 0 2.07 1.385 4.97 4.725 4.97 2.932 0 9.348-3.727 10.787-4.555.82 3.002 3.129 4.451 5.441 4.451 1.078 0 2.006-.055 3.035-.364 1.641-.518 3.643-1.707 7.34-4.554 5.906-4.552 18.23-13.974 18.23-13.974s3.902 3.985 3.855 8.644c-.053 4.655-4.109 7.71-6.268 7.762-2.156.055-3.492-.772-3.443-4.396.053-3.626-.357-2.587-1.434-1.71-1.084.88-2.932 3-2.932 3s2.156 5.437 7.912 5.437c5.75 0 10.936-6.005 10.936-10.092-.15-3.833-3.743-6.005-4.566-8.489zm-100.658 5.074c-1.082 4.656-4.672 7.76-6.367 8.901-.566.363-1.184.673-1.748.931-2.617 1.085-5.287 1.085-5.287 1.085-2.93 0-3.598-2.948-2.725-5.797.77-2.536 4.312-6.467 8.012-8.537.926-.522 1.85-.932 2.775-1.188 3.442-.935 6.42-.052 5.34 4.605zm28.299-2.952c-.772.672-4.111 3.415-6.986 5.641-1.643 1.242-3.133 2.38-3.904 2.846-2.103 1.397-4.926 1.554-4.207-1.966.715-3.417 4.465-7.089 8.111-8.799.103-.052.256-.104.357-.153 3.754-1.606 6.832-.623 7.191-.465.001.05 1.747.827-.562 2.896zm40.365-1.139c.822-1.14 1.59-1.916 2.256-2.381 1.131-.828 2.059-.93 2.67-.93.975 0 1.492 1.03 1.492 1.965 0 .931-.871 2.95-2.256 4.554-.518.573-1.186 1.14-1.906 1.655-1.949 1.35-4.156 2.33-4.156 2.33s-.258-4.138 1.9-7.193zM288.519 125.931c-.512-.104-3.289 2.069-4.264 2.846-.924.828-18.127 13.405-19.514 14.388-1.232.881-2.67 1.916-4.98 2.122-.26 0-.514.055-.824.055-2.771 0-3.029-3.266-3.029-3.266s1.693-.827 3.854-2.016c2.205-1.243 4.826-2.95 6.367-4.605 3.08-3.211 2.926-4.762 2.926-6.006 0-1.295-1.695-3.675-4.518-3.675-1.336 0-3.084.519-4.775 1.399-1.902.98-3.803 2.484-5.084 4.298-1.336 1.861-3.443 6.157-3.803 10.241-1.539.934-4.467 2.744-4.982 2.953-.719.313-1.027.154-1.078-.52-.049-.72-.049-3.673-.049-6.001 0-2.329 3.592-9.575 3.85-10.506.258-.931.41-1.449-.152-1.449h-2.93c-.408 0-.562-.105-.82.309-.256.414-1.541 2.692-3.285 6.834-1.746 4.142-6.986 10.194-9.402 11.539-2.359 1.348-2.824 0-2.516-1.605.311-1.604 7.602-14.489 7.961-15.266.361-.777.926-1.866.361-1.866h-3.854c-.564 0-.873-.254-1.281.573-.672 1.343-7.395 13.144-11.197 16.043-3.186 2.382-5.701 2.121-6.471 1.967 2.205-4.399 6.061-11.903 6.061-11.903.256-.57.516-1.395.822-2.64.562-2.536-.721-4.191-2.262-4.452-1.541-.258-3.391-.516-8.062 1.451-.721.311-1.438.671-2.105 1.035-3.801 2.122-6.832 5.124-7.908 6.367-.463.517-2.467 2.844-4.469 6.055-.822 1.293-1.283 2.432-1.488 3.259-2.465 1.554-5.908 3.26-6.936 3.053-1.385-.206-1.436-2.534-.408-5.847.975-3.313 7.756-11.854 8.062-12.267.256-.466.514-.933.256-1.141-.256-.204-1.438-1.604-1.746-1.499-.309.103-.924.518-1.951 1.343-1.078.831-3.906 2.226-6.523 1.917-2.67-.258-3.029-2.486-3.029-3.26 0-.779.102-2.021-.256-2.122-.359-.104-2.361.053-2.98.209-.615.203-.102.203-.82 4.709-.77 4.502-7.756 12.678-9.655 14.334-1.9 1.605-3.03 2.225-3.39.469-.205-.884-.873-6.214-.975-7.61-.053-.362.05-.723.154-1.085 1.128-1.241 2.771-3.002 3.85-4.813.976-1.552.564-1.968-1.387-3.316-1.59-1.082-5.598-1.652-10.785.472-1.027.41-2.055.929-3.184 1.603-6.674 3.931-10.58 12.266-10.58 12.266s-6.059 3.153-6.624 3.414c-.564.261-.357-.052-.308-.62.051-.62 2.055-11.647 2.312-13.251.255-1.605.46-4.451-1.695-4.451-2.159 0-6.06 2.643-8.682 4.712-2.055 1.553-4.98 4.087-6.214 5.176 1.697-10.248 3.803-23.084 4.16-24.844.618-3.002 0-5.124-3.44-2.74-3.442 2.378-11.914 9.623-11.914 9.623s4.108-8.071 7.55-14.903c3.439-6.834 2.569-11.022.77-13.563-1.797-2.483-8.473-5.844-17.153-3.931-8.678 1.916-20.49 12.681-23.162 21.632-2.875 8.853-3.337 20.598-3.337 20.598l5.341-2.38s0-.364.308-9.987c.309-9.628 5.804-19.668 12.583-24.117 6.778-4.399 14.278-4.608 18.692-2.432 4.418 2.224 2.826 7.863.668 12.211-2.157 4.296-25.062 46.218-25.062 46.218l-.975 1.814c-.154.308.051.412.257.412h4.622c.514 0 .667-.105 1.027-.725.36-.566 4.931-8.743 5.546-9.938.615-1.189 3.031-5.486 6.521-10.608 3.494-5.069 12.687-12.988 14.176-14.18 1.488-1.19 1.027-.105.925.931-.105.985-4.829 33.121-4.93 33.592-.105.462-.154.929.308.929h3.645c.36 0 .412-.051.513-.519.052-.154.567-3.517 1.335-8.278.72-.983 1.902-2.382 3.391-3.934 2.823-2.847 5.959-4.863 7.448-6.003 1.488-1.089 1.027-.052.872.979-.153 1.039-2.055 11.855-2.467 14.342-.408 2.534.154 3.465 1.594 3.103 1.335-.31 9.551-4.71 10.271-5.074-.052.055-.105.261-.105.985.052 1.039.153 4.349 2.568 4.349 2.362 0 7.139-3.781 9.039-5.486.565-.519 1.747-1.451 3.134-2.483.768-.568 1.59-1.19 2.363-1.811.614-.258.562.621.667 1.188.049.573.562 5.487 1.076 7.04.514 1.499 1.541 2.069 3.443 1.499 1.9-.568 6.622-4.295 9.859-7.763 3.236-3.464 7.807-11.385 7.807-11.385s.361.62 2.004 1.142c1.643.517 2.721.355 2.721.355s-2.105 4.145-3.184 6.576c-1.08 2.432-1.645 4.19-1.645 6.211 0 2.069 1.387 4.968 4.725 4.968 2.107 0 5.959-1.861 8.527-3.262.049.676.203 1.346.461 1.862.719 1.399 2.979 1.503 5.188.833 2.104-.623 6.572-3.156 8.523-4.296.566-.312.926-.522.926-.522l-.926 1.553c-2.311 3.884-8.268 13.977-8.523 14.388-.309.573-.309.933.205.933h4.365c.256 0 .615.106.975-.516.156-.31 1.49-2.744 2.93-5.539 1.744-3.26 3.645-6.933 4.207-8.074l.158-.31c.461.207 1.59.414 4.414-.519 4.316-1.394 5.6-2.636 5.6-2.636s-.568 5.432 4.158 5.432c4.725 0 11.197-7.397 11.197-7.397s.461 3.829.717 5.69c.26 1.861.721 2.483 3.598.98 2.463-1.241 6.469-3.311 7.6-3.931.615 3.469 3.08 5.226 5.596 5.226 1.133 0 2.107-.05 3.188-.414 1.643-.569 3.592-1.76 7.137-4.502 5.906-4.554 18.231-13.974 18.231-13.974s3.904 3.986 3.855 8.643c-.053 4.657-4.111 7.71-6.269 7.765-2.154.05-3.49-.774-3.442-4.402.051-3.623-.357-2.586-1.433-1.707-1.084.879-2.932 3.002-2.932 3.002s2.16 5.436 7.908 5.436c5.754 0 10.941-6.006 10.941-10.093 0-4.035-3.596-6.209-4.416-8.643-.825-2.335-.259-4.869-.825-4.972zm-124.641 7.193c-.772.672-4.11 3.415-6.987 5.641-1.643 1.242-3.13 2.38-3.9 2.846-2.107 1.397-4.932 1.554-4.212-1.966.717-3.417 4.467-7.089 8.112-8.799.105-.052.259-.104.36-.153 3.751-1.606 6.833-.623 7.192-.465 0 .05 1.745.827-.565 2.896zm46.94 7.76c-.311.364-.82.778-1.387 1.141-1.594 1.037-4.006 1.968-5.854 1.552-2.517-.515-1.389-3.671-1.389-3.671.668-2.744 4.006-6.834 6.881-9.06.104-.104.207-.153.361-.261 2.721-1.965 6.008-2.585 6.729-2.585.768 0 .82.362.666 1.295-.154.723-.926 2.534-1.439 3.519-.049.102-3.285 6.573-4.568 8.07zm46.681-8.899c.822-1.14 1.592-1.916 2.262-2.381 1.129-.828 2.053-.93 2.67-.93.975 0 1.49 1.03 1.49 1.965 0 .931-.875 2.95-2.262 4.554-.514.573-1.182 1.14-1.898 1.655-1.953 1.35-4.162 2.33-4.162 2.33s-.256-4.138 1.9-7.193z"/><g><g fill="#FFF"><path d="M171.963 200.426c-1.008 0-1.938-.185-2.785-.558-.852-.371-1.588-.878-2.211-1.523-.625-.643-1.111-1.402-1.463-2.277-.354-.879-.529-1.814-.529-2.808v-.04c0-.982.176-1.912.529-2.787.352-.876.838-1.643 1.463-2.301.623-.656 1.365-1.173 2.228-1.552.863-.379 1.805-.567 2.828-.567.637 0 1.211.054 1.723.159.51.106.984.256 1.422.447.439.194.844.426 1.215.698.371.271.731.573 1.074.905l-1.074 1.154c-.596-.559-1.238-1.015-1.92-1.375-.686-.355-1.504-.536-2.461-.536-.77 0-1.48.145-2.139.439-.656.292-1.229.697-1.713 1.214s-.863 1.124-1.135 1.82c-.271.699-.408 1.443-.408 2.24v.04c0 .81.137 1.562.408 2.26.271.696.65 1.304 1.135 1.82.484.518 1.057.926 1.713 1.226.658.3 1.369.448 2.139.448.957 0 1.779-.176 2.471-.528.689-.352 1.365-.845 2.029-1.483l1.037 1.016c-.359.371-.734.708-1.127 1.006-.391.298-.812.554-1.264.765-.451.214-.936.38-1.453.5-.518.119-1.094.178-1.732.178zM185.441 186.152h1.473l6.352 14.035h-1.691l-1.635-3.683h-7.584l-1.652 3.683h-1.613l6.35-14.035zm3.883 8.941l-3.166-7.109-3.186 7.109h6.352zM196.011 186.253h5.992c.863 0 1.629.121 2.301.366.67.246 1.223.588 1.662 1.027.344.343.609.748.795 1.213.186.465.279.976.279 1.534v.039c0 .583-.094 1.105-.279 1.561-.186.459-.447.857-.785 1.195-.338.338-.74.616-1.205.837-.465.218-.969.375-1.512.466l4.279 5.695h-1.93l-4.043-5.416h-3.98v5.416h-1.574v-13.933zm5.864 7.105c.52 0 .998-.064 1.438-.197.439-.133.82-.322 1.139-.568.318-.245.568-.543.748-.896.18-.352.27-.752.27-1.205v-.039c0-.862-.314-1.536-.939-2.021-.623-.484-1.502-.727-2.633-.727h-4.311v5.654h4.288zM214.09 187.704h-4.68v-1.451h10.93v1.451h-4.678v12.483h-1.572v-12.483zM228.461 186.152h1.475l6.35 14.035h-1.691l-1.633-3.683h-7.584l-1.654 3.683h-1.611l6.348-14.035zm-2.528-1.214c.199-.756.443-1.293.736-1.612.293-.319.678-.479 1.154-.479.227 0 .459.045.697.13.238.088.479.179.717.278.24.101.465.19.676.27.213.079.406.12.578.12.266 0 .467-.074.607-.221.139-.145.281-.398.428-.755l.936.26c-.199.755-.443 1.293-.736 1.609-.293.319-.676.48-1.154.48-.227 0-.457-.041-.697-.12-.238-.081-.479-.168-.717-.268-.24-.101-.465-.192-.676-.279-.213-.087-.406-.129-.578-.129-.266 0-.467.072-.607.218-.141.147-.281.398-.428.757l-.936-.259zm6.41 10.155l-3.166-7.109-3.186 7.109h6.352zM245.504 200.426c-1.062 0-2.029-.191-2.898-.577-.869-.385-1.615-.905-2.238-1.562-.625-.658-1.105-1.421-1.443-2.291-.338-.868-.508-1.782-.508-2.736v-.04c0-.957.172-1.871.518-2.748.346-.875.828-1.644 1.453-2.299.623-.656 1.375-1.181 2.25-1.573.877-.391 1.844-.587 2.906-.587 1.061 0 2.027.193 2.896.577.869.385 1.615.907 2.24 1.564.623.655 1.104 1.421 1.443 2.289.338.868.508 1.782.508 2.737.014.014.014.027 0 .04 0 .955-.174 1.873-.518 2.747-.346.875-.83 1.644-1.455 2.3-.623.656-1.373 1.181-2.248 1.573-.877.391-1.846.586-2.906.586zm.039-1.452c.795 0 1.529-.148 2.199-.448.67-.3 1.244-.708 1.723-1.226.479-.517.852-1.12 1.125-1.811.271-.691.408-1.434.408-2.23v-.04c0-.797-.137-1.543-.408-2.239-.273-.697-.654-1.305-1.145-1.821-.492-.519-1.072-.93-1.742-1.234-.672-.307-1.404-.459-2.199-.459-.797 0-1.531.149-2.201.449-.67.298-1.244.706-1.721 1.224-.479.517-.854 1.122-1.125 1.812-.273.69-.41 1.432-.41 2.229v.04c0 .797.137 1.542.41 2.238.271.697.652 1.306 1.143 1.822.492.518 1.072.929 1.744 1.235.669.306 1.402.459 2.199.459zM268.297 200.426c-1.008 0-1.938-.185-2.787-.558-.85-.371-1.586-.878-2.209-1.523-.625-.643-1.111-1.402-1.465-2.277-.352-.879-.527-1.814-.527-2.808v-.04c0-.982.176-1.912.527-2.787.354-.876.84-1.643 1.465-2.301.623-.656 1.365-1.173 2.229-1.552s1.807-.567 2.828-.567c.637 0 1.211.054 1.721.159.512.106.984.256 1.424.447.439.194.844.426 1.215.698.371.271.728.573 1.076.905l-1.076 1.154c-.598-.559-1.238-1.015-1.922-1.375-.682-.355-1.502-.536-2.459-.536-.77 0-1.48.145-2.139.439-.656.292-1.228.697-1.713 1.214-.484.517-.863 1.124-1.135 1.82-.272.699-.408 1.443-.408 2.24v.04c0 .81.137 1.562.408 2.26.271.696.65 1.304 1.135 1.82.484.518 1.057.926 1.713 1.226.658.3 1.369.448 2.139.448.957 0 1.779-.176 2.469-.528.691-.352 1.365-.845 2.031-1.483l1.037 1.016c-.359.371-.736.708-1.125 1.006-.393.298-.814.554-1.266.765-.451.214-.936.38-1.453.5-.521.119-1.097.178-1.733.178zM276.617 186.253h1.574v12.481h7.842v1.453h-9.416v-13.934zM289.078 186.253h1.576v13.935h-1.576v-13.935zM294.734 186.253h10.074v1.413h-8.5v4.798h7.603v1.413h-7.603v4.896h8.6v1.414h-10.174v-13.934zM308.074 186.253h1.471l8.781 11.167v-11.167h1.531v13.935h-1.252l-8.998-11.427v11.427h-1.533v-13.935zM327.482 187.704h-4.678v-1.451h10.928v1.451h-4.678v12.483h-1.572v-12.483zM336.701 186.253h10.07v1.413h-8.498v4.798h7.605v1.413h-7.605v4.896h8.598v1.414h-10.17v-13.934z"/></g><path fill="#FFF" d="M398.338 190.181c.137-.009.277-.027.414-.058.216-.044.433-.103.645-.172.286-.078.564-.154.829-.216.211-.057.427-.092.647-.096.169 0 .241.052.214.153-.284.589-.683 1.112-1.176 1.541-.617.601-1.279 1.15-1.983 1.649-.476.371-.995.685-1.544.937-.423.133-.854.224-1.294.274-.179.051-.365.091-.551.117 0 .078.021.125.062.138.043.007.09.007.133 0 .049-.008.096-.008.141 0 .036 0 .056.06.056.133-.523-.022-.907-.143-1.377.117-.367.184-.675 0-1.091.079-1.076.132-3.164.119-4.234.277-1.439.205-2.673.114-4.106.271-.916.078-1.714-.412-2.654-.255-.527.103-1.048.18-1.569.235-.105.01-.201.06-.273.134-.068.088-.107.189-.119.293-.098.434-.258.85-.474 1.239-.032-.035-.058-.079-.072-.128-.015-.046-.017-.096-.008-.143.032-.085.071-.165.122-.239.053-.053.092-.119.115-.192.006-.042.019-.081.041-.114.045-.042.073-.098.075-.158 0-.056-.049-.09-.152-.121-.073-.018-.149-.018-.22 0-.062 0-.105.084-.135.216.004.039-.002.084-.019.119-.019.039-.043.07-.077.096-.055.032-.113.055-.181.058l-.194.055c-.055 0-.092.059-.117.138l.154.078c.081.052.152.097.22.135.066.037.07.09 0 .158-.111.099-.246.173-.391.214.051.091.075.19.079.292-.006.114-.03.225-.079.33v.076c-.109.312-.25.613-.414.902-.278.402-.419.878-.412 1.364 0 .048-.008.092-.026.136-.017.044-.043.082-.073.117-.066.066-.139.125-.216.176-.081.025-.154.066-.216.116-.062.051-.111.12-.137.194l-.547 1.564c-.258.582-.478 1.182-.655 1.792-.468 1.541-.914 3.07-1.334 4.605l-.547 1.951c-.041-.015-.075-.043-.1-.078l-.06-.117c.013-.037.013-.077 0-.114 0-.032-.056-.042-.135-.042-.056.086-.105.178-.154.273l-.355.704c-.135-.081-.267-.176-.388-.277-.205-.177-.448-.309-.703-.386-.973-.289-1.349-1.067-1.144-2.342-.079-.286-.16-.545-.254-.781-.051-.175-.169-.323-.329-.411-.971-.26-1.334-1.051-1.095-2.379.395-2.213.997-4.381 1.798-6.477l.391-1.093.235-.623c-1.96.315-3.907.535-5.839.663-.12 0-.239.011-.354.038-.137.003-.278.018-.414.041-1.309.104-2.118-.452-2.432-1.677-.137-.431-.335-.838-.591-1.209-.297-.387-.521-.821-.662-1.287-.218-.299-.363-.649-.416-1.014-.088-.363-.226-.712-.403-1.039-.194-.353-.327-.735-.397-1.13-.03-.196-.021-.396.03-.588.049-.191.139-.37.265-.525.134-.154.301-.28.485-.371.183-.089.388-.142.593-.153 1.149-.029 2.31-.079 3.491-.158 1.277-.101 2.558-.166 3.841-.198 1.304-.073 2.624-.206 3.958-.388l1.45-.154c.166-.026.325-.08.468-.168.151-.102.26-.246.316-.415l1.496-4.294c.444-1.372.901-2.738 1.371-4.094.184-.493.354-1.003.512-1.52.487-1.573 1.104-3.099 1.849-4.567.237-.421.619-.744 1.078-.916.203-.085.425-.119.647-.102.22.016.436.086.624.201.884.62 1.608 1.433 2.118 2.38.107.203.154.432.135.658-.009.259-.07.51-.177.744.7.59 1.285 1.305 1.729 2.108.124.226.167.487.124.74-.041.285-.111.562-.216.827-.525 1.143-.993 2.287-1.415 3.431-.418 1.234-.903 2.442-1.448 3.626l-.081.155c.263-.023.538-.062.83-.115.728-.077 1.272.049 2.028-.027 1.125-.056 2.934.197 4.086 0 .76-.154 2.167.053 2.902 0 .83-.05 1.144.185 1.981 0 .231-.05.6.213 1.336.122.734-.09 1.458-.162 2.174-.214.474-.048.954-.062 1.431-.04.079.026 0 .142-.254.349-.252.206-.553.457-.924.742-.371.287-.771.631-1.121.921-.239.168-.44.378-.594.624-.092.435-.344.827-.705 1.092-.335.235-.707.418-1.099.543.463-.052.92-.128 1.371-.235.553-.103 1.127-.062 1.655.121.07-.001.125.014.181.038zm-19.484 7.155c-.111.678-.322 1.335-.623 1.952-.134.308-.261.61-.397.893.203-.993.549-1.956 1.038-2.848l-.018.003z"/></g><g fill="#FFF"><path d="M18.314 316.053c-1.253 0-2.408-.23-3.463-.693-1.056-.461-1.971-1.092-2.746-1.893-.775-.799-1.382-1.742-1.818-2.832-.437-1.086-.655-2.25-.655-3.486v-.049c0-1.221.218-2.375.655-3.463.436-1.088 1.043-2.041 1.818-2.857.774-.816 1.698-1.459 2.771-1.93 1.072-.469 2.242-.703 3.512-.703.791 0 1.504.064 2.139.197.634.133 1.225.316 1.769.555.544.24 1.047.529 1.509.867.461.338.906.713 1.334 1.125l-1.334 1.436c-.743-.693-1.538-1.262-2.388-1.707-.849-.445-1.867-.668-3.055-.668-.956 0-1.843.182-2.658.545-.816.361-1.526.863-2.127 1.508-.602.643-1.072 1.398-1.41 2.262-.338.867-.507 1.795-.507 2.783v.051c0 1.006.169 1.941.507 2.807.337.865.808 1.619 1.41 2.264.602.643 1.311 1.15 2.127 1.52.815.373 1.702.557 2.658.557 1.188 0 2.21-.219 3.067-.654.857-.438 1.699-1.051 2.523-1.842l1.286 1.26c-.445.463-.911.879-1.397 1.25-.487.371-1.01.688-1.571.951-.561.264-1.163.471-1.806.619-.641.145-1.359.22-2.15.22zM35.059 298.318h1.83l7.89 17.438h-2.102l-2.029-4.576h-9.423l-2.053 4.576h-2.003l7.89-17.438zm4.822 11.106l-3.933-8.83-3.958 8.83h7.891zM48.192 298.441h7.445c1.072 0 2.024.154 2.857.457.833.307 1.521.73 2.065 1.275.429.43.759.932.99 1.508.231.578.346 1.213.346 1.906v.049c0 .725-.115 1.373-.346 1.941-.231.568-.557 1.065-.977 1.484-.421.42-.919.766-1.497 1.037-.577.273-1.204.469-1.88.582l5.318 7.074h-2.399l-5.021-6.729H50.147v6.729h-1.954v-17.313zm7.285 8.832c.644 0 1.239-.084 1.785-.248.546-.164 1.017-.4 1.414-.705.396-.305.706-.678.93-1.113.223-.438.334-.935.334-1.496v-.051c0-1.072-.389-1.908-1.165-2.51-.777-.602-1.868-.902-3.274-.902h-5.355v7.025h5.331zM74.112 316.053c-1.319 0-2.519-.238-3.598-.717-1.081-.479-2.008-1.127-2.783-1.943-.775-.816-1.373-1.762-1.793-2.844-.42-1.08-.63-2.213-.63-3.4v-.049c0-1.188.214-2.326.643-3.414.428-1.09 1.03-2.041 1.805-2.858.775-.816 1.707-1.467 2.795-1.953 1.088-.486 2.292-.728 3.611-.728 1.319 0 2.519.238 3.598.717 1.081.477 2.008 1.125 2.783 1.941.775.816 1.373 1.764 1.794 2.844.42 1.08.63 2.213.63 3.4.016.018.016.033 0 .051 0 1.186-.214 2.324-.643 3.414-.429 1.088-1.031 2.039-1.805 2.855-.775.816-1.707 1.467-2.795 1.953-1.088.487-2.292.731-3.612.731zm.05-1.807c.99 0 1.9-.184 2.733-.557.832-.369 1.546-.877 2.14-1.52.593-.645 1.059-1.393 1.397-2.252.338-.855.507-1.781.507-2.77v-.047c0-.99-.169-1.916-.507-2.783-.338-.867-.812-1.619-1.422-2.262-.61-.645-1.332-1.156-2.164-1.535-.833-.379-1.744-.568-2.733-.568-.989 0-1.9.186-2.732.557-.834.371-1.546.877-2.14 1.52-.593.645-1.059 1.395-1.397 2.252-.338.857-.507 1.781-.507 2.77v.051c0 .988.169 1.916.507 2.781.337.867.812 1.621 1.422 2.264.61.643 1.332 1.154 2.164 1.533.831.377 1.743.566 2.732.566zM87.098 298.441h1.954v15.51h9.745v1.805H87.098v-17.315zM102.581 298.441h1.954v17.315h-1.954v-17.315zM109.604 298.441h1.831l10.907 13.877v-13.877h1.905v17.315h-1.559l-11.18-14.197v14.197h-1.905v-17.315zM135.551 298.318h1.83l7.891 17.438h-2.103l-2.029-4.576h-9.423l-2.053 4.576h-2.003l7.89-17.438zm4.822 11.106l-3.932-8.83-3.958 8.83h7.89zM162.511 298.318h1.83l7.891 17.438h-2.104l-2.027-4.576h-9.424l-2.053 4.576h-2.003l7.89-17.438zm4.822 11.106l-3.932-8.83-3.959 8.83h7.891zM175.644 298.441h1.955v15.51h9.744v1.805h-11.699v-17.315zM190.955 298.441h7.357c.986 0 1.863.137 2.629.408.764.272 1.395.647 1.887 1.123.742.773 1.111 1.695 1.111 2.766v.049c0 .561-.078 1.057-.234 1.494-.156.435-.365.814-.629 1.135-.264.32-.555.592-.875.814-.322.223-.654.408-1 .557.51.148.992.342 1.443.582.453.24.844.523 1.174.855.33.33.592.721.789 1.176.197.455.297.978.297 1.572v.051c0 .744-.148 1.408-.445 1.994-.295.586-.719 1.082-1.27 1.486-.553.404-1.215.715-1.988.93-.773.217-1.631.322-2.568.322h-7.678v-17.314zm7.06 7.694c1.184 0 2.141-.26 2.873-.777.732-.516 1.098-1.285 1.098-2.303v-.049c0-.854-.33-1.535-.986-2.043-.658-.51-1.604-.764-2.838-.764h-5.254v5.936h5.107zm.691 7.863c1.316 0 2.352-.271 3.109-.814.756-.543 1.135-1.303 1.135-2.275v-.049c0-.941-.387-1.67-1.16-2.189-.773-.52-1.916-.779-3.43-.779h-5.453V314h5.799zM215.738 316.027c-1.074 0-2.051-.16-2.932-.482-.883-.32-1.641-.799-2.275-1.434-.635-.635-1.125-1.424-1.473-2.361-.346-.941-.52-2.022-.52-3.24v-10.068h1.955v9.943c0 1.881.465 3.322 1.397 4.33.932 1.004 2.23 1.508 3.896 1.508 1.6 0 2.869-.479 3.809-1.436.939-.955 1.41-2.383 1.41-4.277v-10.068h1.953v9.918c0 1.272-.172 2.383-.52 3.34-.346.957-.836 1.758-1.471 2.4-.635.643-1.395 1.125-2.275 1.445-.882.322-1.866.482-2.954.482zM241.087 314.197c-.74.578-1.566 1.031-2.473 1.361-.906.33-1.904.494-2.992.494-1.318 0-2.52-.238-3.598-.717-1.082-.479-2.01-1.127-2.783-1.943-.775-.816-1.373-1.762-1.795-2.844-.42-1.08-.629-2.213-.629-3.4v-.048c0-1.188.213-2.326.643-3.414.428-1.09 1.029-2.041 1.805-2.858.775-.816 1.707-1.467 2.797-1.953 1.086-.486 2.291-.728 3.609-.728 1.32 0 2.52.238 3.6.717 1.08.477 2.006 1.125 2.783 1.941.773.816 1.371 1.764 1.793 2.844.42 1.08.631 2.213.631 3.4.016.018.016.033 0 .051 0 1.088-.178 2.131-.533 3.129-.355.998-.871 1.891-1.545 2.684l2.301 1.902-1.336 1.461-2.278-2.079zm-5.416.049c.775 0 1.5-.113 2.178-.346.676-.23 1.277-.553 1.805-.965l-3.215-2.744 1.311-1.459 3.189 2.893c.48-.609.852-1.295 1.115-2.053.264-.758.396-1.566.396-2.424v-.048c0-.99-.172-1.916-.51-2.783s-.811-1.619-1.42-2.262c-.611-.645-1.332-1.156-2.166-1.535-.832-.379-1.744-.568-2.732-.568-.99 0-1.9.186-2.732.557-.834.371-1.547.877-2.141 1.52-.594.645-1.059 1.395-1.396 2.252-.338.857-.508 1.781-.508 2.77v.051c0 .988.17 1.916.508 2.781.338.867.811 1.621 1.422 2.264.609.643 1.332 1.154 2.164 1.533.832.377 1.744.566 2.732.566zM255.533 316.027c-1.072 0-2.049-.16-2.93-.482-.883-.32-1.641-.799-2.275-1.434-.635-.635-1.125-1.424-1.473-2.361-.348-.941-.52-2.022-.52-3.24v-10.068h1.953v9.943c0 1.881.467 3.322 1.398 4.33.932 1.004 2.23 1.508 3.896 1.508 1.6 0 2.869-.479 3.809-1.436.939-.955 1.408-2.383 1.408-4.277v-10.068h1.955v9.918c0 1.272-.174 2.383-.518 3.34-.35.957-.838 1.758-1.473 2.4-.635.643-1.395 1.125-2.277 1.445-.881.322-1.863.482-2.953.482zM267.38 298.441h12.516v1.758h-10.561v5.959h9.447v1.758h-9.447v6.082h10.684v1.758H267.38v-17.315zM283.951 298.441h7.445c1.072 0 2.025.154 2.857.457.834.307 1.52.73 2.065 1.275.432.43.76.932.992 1.508.229.578.344 1.213.344 1.906v.049c0 .725-.115 1.373-.344 1.941-.233.568-.559 1.065-.98 1.484-.418.42-.916.766-1.494 1.037-.578.273-1.203.469-1.881.582l5.318 7.074h-2.4l-5.02-6.729H285.904v6.729h-1.953v-17.313zm7.289 8.832c.643 0 1.236-.084 1.783-.248.545-.164 1.018-.4 1.414-.705.397-.305.705-.678.93-1.113.223-.438.332-.935.332-1.496v-.051c0-1.072-.387-1.908-1.162-2.51-.779-.602-1.867-.902-3.275-.902h-5.357v7.025h5.335zM315.337 314.197c-.74.578-1.565 1.031-2.473 1.361-.904.33-1.902.494-2.992.494-1.32 0-2.518-.238-3.598-.717-1.082-.479-2.01-1.127-2.781-1.943-.777-.816-1.375-1.762-1.795-2.844-.422-1.08-.631-2.213-.631-3.4v-.048c0-1.188.213-2.326.645-3.414.428-1.09 1.027-2.041 1.803-2.858.777-.816 1.707-1.467 2.795-1.953 1.09-.486 2.295-.728 3.611-.728 1.32 0 2.518.238 3.6.717 1.08.477 2.008 1.125 2.783 1.941.773.816 1.373 1.764 1.795 2.844.418 1.08.627 2.213.627 3.4.016.018.016.033 0 .051 0 1.088-.178 2.131-.531 3.129-.354.998-.869 1.891-1.545 2.684l2.301 1.902-1.336 1.461-2.278-2.079zm-5.416.049c.775 0 1.5-.113 2.178-.346.676-.23 1.277-.553 1.807-.965l-3.219-2.744 1.311-1.459 3.193 2.893c.479-.609.85-1.295 1.113-2.053.264-.758.396-1.566.396-2.424v-.048c0-.99-.17-1.916-.51-2.783-.338-.867-.81-1.619-1.42-2.262-.611-.645-1.332-1.156-2.164-1.535-.834-.379-1.746-.568-2.734-.568s-1.9.186-2.734.557c-.83.371-1.545.877-2.139 1.52-.592.645-1.059 1.395-1.396 2.252-.338.857-.506 1.781-.506 2.77v.051c0 .988.168 1.916.506 2.781.338.867.811 1.621 1.424 2.264.607.643 1.33 1.154 2.164 1.533.83.377 1.742.566 2.73.566zM329.783 316.027c-1.072 0-2.049-.16-2.932-.482-.883-.32-1.639-.799-2.274-1.434-.635-.635-1.127-1.424-1.471-2.361-.348-.941-.523-2.022-.523-3.24v-10.068h1.955v9.943c0 1.881.467 3.322 1.398 4.33.932 1.004 2.232 1.508 3.897 1.508 1.598 0 2.869-.479 3.807-1.436.941-.955 1.41-2.383 1.41-4.277v-10.068h1.955v9.918c0 1.272-.174 2.383-.518 3.34-.348.957-.838 1.758-1.473 2.4-.635.643-1.395 1.125-2.275 1.445-.882.322-1.868.482-2.956.482zM341.63 298.441h12.516v1.758h-10.561v5.959h9.445v1.758h-9.445v6.082h10.684v1.758H341.63v-17.315z"/><g><path d="M16.248 282.608c-1.138 0-2.127-.199-2.968-.597-.84-.398-1.633-.899-2.374-1.505l1.138-1.509c.708.627 1.401 1.092 2.077 1.398.676.304 1.402.457 2.177.457.774 0 1.484-.19 2.127-.572.643-.38 1.191-.904 1.645-1.574.453-.67.799-1.472 1.039-2.407.239-.935.35-1.957.334-3.064-.479.758-1.113 1.409-1.905 1.953-.791.544-1.789.816-2.993.816-.891 0-1.707-.132-2.449-.397-.742-.262-1.377-.634-1.905-1.112-.527-.479-.939-1.047-1.237-1.707-.296-.658-.445-1.375-.445-2.151v-.05c0-.824.152-1.594.458-2.312.304-.717.729-1.34 1.273-1.866.544-.528 1.2-.945 1.966-1.25.767-.306 1.612-.457 2.536-.457.989 0 1.855.156 2.596.471.743.312 1.394.75 1.954 1.31.66.658 1.184 1.509 1.571 2.547.387 1.039.582 2.424.582 4.155v.05c0 1.368-.173 2.629-.52 3.784-.346 1.154-.837 2.143-1.472 2.968-.635.824-1.394 1.469-2.275 1.929-.88.463-1.858.692-2.93.692zm.521-8.285c.658 0 1.257-.11 1.793-.333.535-.222.989-.514 1.36-.876.371-.36.655-.776.853-1.245.198-.468.297-.948.297-1.44v-.05c0-.543-.108-1.052-.322-1.528-.214-.479-.516-.893-.903-1.247-.387-.352-.854-.633-1.397-.837-.543-.206-1.138-.31-1.78-.31-.643 0-1.225.111-1.744.334-.519.222-.957.519-1.311.887-.355.371-.627.799-.816 1.282-.19.486-.284 1-.284 1.541v.05c0 .543.102 1.048.309 1.517.206.469.494.866.865 1.195.372.33.82.588 1.348.777.527.188 1.105.283 1.732.283zM32.251 282.608c-1.138 0-2.127-.199-2.968-.597-.841-.398-1.633-.899-2.375-1.505l1.138-1.509c.708.627 1.401 1.092 2.077 1.398.676.304 1.402.457 2.177.457.774 0 1.484-.19 2.127-.572.643-.38 1.191-.904 1.645-1.574.454-.67.8-1.472 1.039-2.407.239-.935.351-1.957.334-3.064-.479.758-1.114 1.409-1.905 1.953-.792.544-1.789.816-2.993.816-.891 0-1.707-.132-2.448-.397-.742-.262-1.377-.634-1.905-1.112-.527-.479-.939-1.047-1.236-1.707-.296-.658-.445-1.375-.445-2.151v-.05c0-.824.152-1.594.458-2.312.304-.717.729-1.34 1.274-1.866.544-.528 1.2-.945 1.966-1.25.767-.306 1.612-.457 2.536-.457.989 0 1.855.156 2.597.471.742.312 1.394.75 1.954 1.31.659.658 1.183 1.509 1.571 2.547.387 1.039.581 2.424.581 4.155v.05c0 1.368-.173 2.629-.519 3.784-.347 1.154-.837 2.143-1.472 2.968-.635.824-1.394 1.469-2.275 1.929-.884.463-1.862.692-2.933.692zm.52-8.285c.659 0 1.257-.11 1.793-.333.536-.222.99-.514 1.36-.876.371-.36.655-.776.854-1.245.198-.468.297-.948.297-1.44v-.05c0-.543-.108-1.052-.322-1.528-.214-.479-.515-.893-.903-1.247-.387-.352-.853-.633-1.397-.837-.543-.206-1.138-.31-1.78-.31-.643 0-1.225.111-1.744.334-.52.222-.957.519-1.311.887-.355.371-.627.799-.816 1.282-.19.486-.284 1-.284 1.541v.05c0 .543.102 1.048.309 1.517.206.469.495.866.866 1.195.371.33.819.588 1.348.777.525.188 1.102.283 1.73.283zM48.253 282.608c-1.138 0-2.127-.199-2.968-.597-.84-.398-1.633-.899-2.374-1.505l1.137-1.509c.708.627 1.401 1.092 2.078 1.398.676.304 1.401.457 2.177.457.775 0 1.484-.19 2.127-.572.643-.38 1.191-.904 1.645-1.574.453-.67.799-1.472 1.039-2.407.239-.935.35-1.957.334-3.064-.479.758-1.114 1.409-1.905 1.953-.792.544-1.789.816-2.993.816-.89 0-1.707-.132-2.448-.397-.742-.262-1.377-.634-1.905-1.112-.527-.479-.94-1.047-1.237-1.707-.296-.658-.445-1.375-.445-2.151v-.05c0-.824.152-1.594.458-2.312.305-.717.729-1.34 1.274-1.866.544-.528 1.2-.945 1.966-1.25.767-.306 1.612-.457 2.535-.457.99 0 1.855.156 2.597.471.742.312 1.394.75 1.954 1.31.659.658 1.184 1.509 1.571 2.547.387 1.039.581 2.424.581 4.155v.05c0 1.368-.173 2.629-.519 3.784-.346 1.154-.837 2.143-1.472 2.968-.635.824-1.394 1.469-2.275 1.929-.883.463-1.86.692-2.932.692zm.52-8.285c.659 0 1.257-.11 1.793-.333.536-.222.99-.514 1.36-.876.372-.36.656-.776.854-1.245.198-.468.297-.948.297-1.44v-.05c0-.543-.108-1.052-.322-1.528-.214-.479-.515-.893-.902-1.247-.387-.352-.854-.633-1.398-.837-.544-.206-1.138-.31-1.78-.31-.643 0-1.225.111-1.744.334-.52.222-.957.519-1.311.887-.355.371-.627.799-.816 1.282-.19.486-.284 1-.284 1.541v.05c0 .543.103 1.048.31 1.517.206.469.494.866.865 1.195.371.33.82.588 1.348.777.525.188 1.103.283 1.73.283zM64.255 282.608c-1.138 0-2.127-.199-2.968-.597-.84-.398-1.633-.899-2.374-1.505l1.138-1.509c.708.627 1.401 1.092 2.077 1.398.676.304 1.402.457 2.177.457.774 0 1.484-.19 2.127-.572.643-.38 1.191-.904 1.645-1.574.453-.67.799-1.472 1.039-2.407.239-.935.35-1.957.334-3.064-.479.758-1.113 1.409-1.905 1.953s-1.789.816-2.993.816c-.891 0-1.707-.132-2.449-.397-.742-.262-1.376-.634-1.905-1.112-.527-.479-.939-1.047-1.237-1.707-.296-.658-.445-1.375-.445-2.151v-.05c0-.824.152-1.594.458-2.312.304-.717.729-1.34 1.273-1.866.544-.528 1.2-.945 1.966-1.25.767-.306 1.612-.457 2.535-.457.99 0 1.856.156 2.597.471.743.312 1.394.75 1.954 1.31.66.658 1.184 1.509 1.571 2.547.387 1.039.582 2.424.582 4.155v.05c0 1.368-.173 2.629-.52 3.784-.346 1.154-.837 2.143-1.472 2.968-.635.824-1.394 1.469-2.275 1.929-.881.463-1.858.692-2.93.692zm.52-8.285c.658 0 1.257-.11 1.793-.333.535-.222.989-.514 1.36-.876.371-.36.655-.776.853-1.245.198-.468.297-.948.297-1.44v-.05c0-.543-.108-1.052-.322-1.528-.214-.479-.516-.893-.903-1.247-.387-.352-.854-.633-1.397-.837-.543-.206-1.138-.31-1.78-.31-.644 0-1.225.111-1.744.334-.519.222-.957.519-1.311.887-.355.371-.627.799-.816 1.282-.19.486-.284 1-.284 1.541v.05c0 .543.102 1.048.309 1.517.206.469.494.866.865 1.195.372.33.82.588 1.348.777.528.188 1.105.283 1.732.283zM80.257 282.608c-1.138 0-2.127-.199-2.968-.597-.841-.398-1.633-.899-2.375-1.505l1.138-1.509c.708.627 1.401 1.092 2.077 1.398.676.304 1.402.457 2.177.457.774 0 1.484-.19 2.127-.572.643-.38 1.191-.904 1.645-1.574.453-.67.8-1.472 1.039-2.407.239-.935.351-1.957.334-3.064-.479.758-1.114 1.409-1.905 1.953-.792.544-1.789.816-2.993.816-.89 0-1.707-.132-2.448-.397-.743-.262-1.377-.634-1.905-1.112-.528-.479-.94-1.047-1.237-1.707-.296-.658-.445-1.375-.445-2.151v-.05c0-.824.152-1.594.458-2.312.304-.717.729-1.34 1.274-1.866.544-.528 1.2-.945 1.966-1.25.767-.306 1.612-.457 2.536-.457.989 0 1.855.156 2.597.471.742.312 1.394.75 1.954 1.31.659.658 1.183 1.509 1.571 2.547.387 1.039.581 2.424.581 4.155v.05c0 1.368-.173 2.629-.519 3.784-.346 1.154-.837 2.143-1.472 2.968-.635.824-1.394 1.469-2.275 1.929-.883.463-1.86.692-2.932.692zm.52-8.285c.659 0 1.257-.11 1.793-.333.536-.222.99-.514 1.36-.876.371-.36.655-.776.854-1.245.198-.468.297-.948.297-1.44v-.05c0-.543-.108-1.052-.322-1.528-.214-.479-.515-.893-.903-1.247-.387-.352-.853-.633-1.397-.837-.544-.206-1.138-.31-1.78-.31-.643 0-1.225.111-1.744.334-.52.222-.957.519-1.311.887-.355.371-.627.799-.816 1.282-.19.486-.284 1-.284 1.541v.05c0 .543.102 1.048.309 1.517.206.469.495.866.866 1.195.371.33.819.588 1.348.777.526.188 1.103.283 1.73.283zM96.259 282.608c-1.138 0-2.127-.199-2.968-.597-.84-.398-1.633-.899-2.375-1.505l1.138-1.509c.709.627 1.401 1.092 2.078 1.398.676.304 1.401.457 2.177.457.775 0 1.484-.19 2.127-.572.643-.38 1.191-.904 1.645-1.574.454-.67.8-1.472 1.039-2.407.239-.935.35-1.957.334-3.064-.479.758-1.113 1.409-1.905 1.953-.791.544-1.789.816-2.993.816-.891 0-1.707-.132-2.449-.397-.742-.262-1.377-.634-1.905-1.112-.527-.479-.939-1.047-1.237-1.707-.296-.658-.445-1.375-.445-2.151v-.05c0-.824.152-1.594.458-2.312.305-.717.729-1.34 1.274-1.866.544-.528 1.2-.945 1.966-1.25.766-.306 1.612-.457 2.535-.457.99 0 1.855.156 2.597.471.742.312 1.393.75 1.954 1.31.659.658 1.184 1.509 1.571 2.547.387 1.039.581 2.424.581 4.155v.05c0 1.368-.173 2.629-.519 3.784-.346 1.154-.837 2.143-1.472 2.968-.635.824-1.394 1.469-2.275 1.929-.881.463-1.859.692-2.931.692zm.52-8.285c.659 0 1.257-.11 1.793-.333.536-.222.99-.514 1.36-.876.371-.36.655-.776.853-1.245.198-.468.297-.948.297-1.44v-.05c0-.543-.108-1.052-.322-1.528-.214-.479-.515-.893-.902-1.247-.387-.352-.854-.633-1.398-.837-.543-.206-1.138-.31-1.78-.31-.644 0-1.225.111-1.744.334-.52.222-.956.519-1.311.887-.355.371-.627.799-.816 1.282-.19.486-.284 1-.284 1.541v.05c0 .543.103 1.048.31 1.517.206.469.494.866.865 1.195.371.33.82.588 1.348.777.527.188 1.104.283 1.731.283zM112.261 282.608c-1.137 0-2.127-.199-2.967-.597-.841-.398-1.633-.899-2.374-1.505l1.138-1.509c.708.627 1.401 1.092 2.077 1.398.676.304 1.402.457 2.177.457.774 0 1.484-.19 2.127-.572.643-.38 1.191-.904 1.645-1.574.453-.67.799-1.472 1.039-2.407.239-.935.35-1.957.334-3.064-.479.758-1.113 1.409-1.905 1.953-.791.544-1.789.816-2.993.816-.891 0-1.707-.132-2.448-.397-.743-.262-1.377-.634-1.905-1.112-.527-.479-.94-1.047-1.237-1.707-.296-.658-.445-1.375-.445-2.151v-.05c0-.824.152-1.594.458-2.312.304-.717.729-1.34 1.274-1.866.544-.528 1.2-.945 1.966-1.25.767-.306 1.612-.457 2.536-.457.989 0 1.855.156 2.596.471.743.312 1.394.75 1.954 1.31.66.658 1.184 1.509 1.571 2.547.387 1.039.582 2.424.582 4.155v.05c0 1.368-.173 2.629-.52 3.784-.346 1.154-.837 2.143-1.472 2.968-.635.824-1.394 1.469-2.275 1.929-.884.463-1.861.692-2.933.692zm.521-8.285c.658 0 1.257-.11 1.793-.333.535-.222.989-.514 1.36-.876.371-.36.655-.776.854-1.245.198-.468.297-.948.297-1.44v-.05c0-.543-.108-1.052-.322-1.528-.214-.479-.516-.893-.903-1.247-.387-.352-.854-.633-1.397-.837-.544-.206-1.138-.31-1.78-.31-.643 0-1.225.111-1.744.334-.519.222-.957.519-1.311.887-.355.371-.627.799-.816 1.282-.19.486-.284 1-.284 1.541v.05c0 .543.102 1.048.309 1.517.206.469.494.866.866 1.195.371.33.819.588 1.348.777.525.188 1.102.283 1.73.283z"/></g></g></svg>