<?xml version="1.0" encoding="utf-8"?>
<!-- Generator: Adobe Illustrator 23.0.2, SVG Export Plug-In . SVG Version: 6.00 Build 0)  -->
<svg version="1.1" id="Layer_1" xmlns="http://www.w3.org/2000/svg" xmlns:xlink="http://www.w3.org/1999/xlink" x="0px" y="0px"
	 viewBox="0 0 36.1 44.1" style="enable-background:new 0 0 36.1 44.1;" xml:space="preserve">
<style type="text/css">
	.st0{fill:#FFFFFF;}
</style>
<g>
	<path class="st0" d="M10.5,19.9h-0.4c-0.1,0-0.1,0-0.1-0.1c0,0,0,0,0-0.1l3.2-5.3l4.8,6.2l0.2,0.2l3.7-6.1l3,4.9c0,0,0,0,0,0.1
		c0,0,0,0.1-0.1,0.1l-0.1,0c-0.2,0-0.3,0.1-0.3,0.3c0,0.2,0.1,0.3,0.3,0.3h2.7c0.2,0,0.3-0.1,0.3-0.3c0-0.2-0.1-0.3-0.3-0.3h-0.3
		c-0.1,0-0.2,0-0.3-0.1l-4.4-7.2l-3.8,6.1l-0.7-0.9l-4.2-5.5l-4.5,7.4c-0.1,0.2-0.3,0.3-0.5,0.3H8.5c-0.2,0-0.3,0.1-0.3,0.3
		c0,0.2,0.1,0.3,0.3,0.3h2c0.2,0,0.3-0.1,0.3-0.3C10.8,20,10.7,19.9,10.5,19.9z"/>
	<path class="st0" d="M12.3,41.1c0,0.3,0.3,0.6,0.6,0.6c0.1,0,0.2,0,0.3-0.1c0.5-0.3,0.6-1.2,0-1.7c-0.6-0.5-1.3-0.4-1.3-0.4
		c-1.2,0-2.1,1-2.1,2.2c0,0.4,0.1,0.8,0.3,1.2c0.1,0.2,0.3,0.4,0.5,0.6c0,0,1,1.1,3.3,0.5c1.6-0.4,2.9-0.8,4.1-0.9c0,0,0.1,0,0.1,0
		c1.3,0,2.6,0.5,4.3,0.9c2.3,0.6,3.3-0.5,3.3-0.5c0.2-0.2,0.4-0.4,0.5-0.6c0.2-0.3,0.3-0.7,0.3-1.2c0-1.2-1-2.2-2.1-2.2
		c0,0-0.7-0.1-1.3,0.4c-0.7,0.5-0.6,1.4,0,1.7c0.1,0.1,0.1,0.1,0.3,0.1c0.3,0,0.6-0.3,0.6-0.6c0-0.3-0.3-0.6-0.6-0.6
		c0,0-0.1,0-0.1,0c0.2-0.3,0.7-0.6,1.2-0.6c0.9,0,1.7,0.8,1.7,1.7c0,0.3-0.1,0.7-0.3,0.9c0,0-0.7,1.3-2.2,0.9
		c-1.3-0.3-2.9-1.2-4-1.6c-0.5-0.2-1-0.3-1.5-0.3h0c-0.6,0-1.1,0.1-1.5,0.3c-1.1,0.4-2.6,1.3-4,1.6c-1.5,0.3-2.2-0.9-2.2-0.9
		c-0.2-0.3-0.3-0.6-0.3-0.9c0-1,0.8-1.7,1.7-1.7c0.5,0,1,0.2,1.2,0.6c0,0-0.1,0-0.1,0C12.5,40.5,12.3,40.7,12.3,41.1z"/>
	<path class="st0" d="M18.1,38.4L18.1,38.4c0.4-0.8,0.9-1.6,1.6-2.2c0.7-0.6,6.2-2.1,7.3-2.4c2.3-0.6,3.1-2,3.1-3.2V9.8h-12h-12
		v20.7c0,1.2,0.8,2.6,3.1,3.2c1,0.3,2.7,0.7,4.3,1.2c1.8,0.5,2.9,0.7,3.9,2.1C17.5,37.5,18.1,38.4,18.1,38.4z M9.4,32.9
		C7.5,32.4,7,31.3,7,30.6V10.8h11.1h11.1v19.8c0,0.7-0.5,1.8-2.4,2.4c-1,0.3-2.8,0.7-4.3,1.2c-2,0.6-3.2,0.8-4.4,2.5
		c-0.2-0.3-0.6-0.8-1-1.1C16.2,34.7,10.8,33.3,9.4,32.9z"/>
	<path class="st0" d="M30.9,36.1c3.3-2,5-4.2,5.1-7c0-1.3-0.3-2.3-0.8-3.3c0,0-1.1-1.6-1.6-2.3c-0.9-1.4-1.4-3-1.4-5
		c0-1.6,0.4-3.2,1.1-4.4c1-1.9,2.1-3.3,2.1-3.3c0.9-1.2,1.7-4.4-1.6-6.1c-2-1-4.5-0.2-5,0c-1.3,0.4-3.9,1.9-6,1.9
		c-0.2,0-0.4,0-0.6,0C22.6,5.9,22.3,5,22.3,5c-0.3-0.9,0-1.8,0-1.8C22.5,2.3,22.1,2,22.1,2c-0.7-0.5-1.3,0.1-1.3,0.1
		c-0.4,0.3-1.6,1.6-1.6,1.6c-0.2,0.2-0.2,0-0.2,0C18.8,3.6,19,3.4,19,3.4C19.2,3.1,20.3,2,20.3,2c0.8-0.9,0.2-1.6,0.2-1.6
		c-0.6-0.7-1.6-0.2-1.6-0.2c-0.5,0.2-0.8,0.2-0.8,0.2h0c0,0-0.2,0-0.8-0.2c0,0-1-0.5-1.6,0.2c0,0-0.6,0.7,0.2,1.6c0,0,1,1.1,1.2,1.4
		c0,0,0.2,0.2,0.1,0.3c0,0-0.1,0.1-0.2,0c0,0-1.2-1.2-1.6-1.6c0,0-0.6-0.6-1.3-0.1c0,0-0.5,0.3-0.2,1.2c0,0,0.3,0.9,0,1.8
		c0,0-0.3,0.9,0.2,1.4c-0.2,0-0.4,0-0.6,0c-2.1,0-4.6-1.4-6-1.9c-0.5-0.2-3-1.1-5,0c-3.3,1.7-2.5,4.9-1.6,6.1c0,0,1.1,1.4,2.1,3.3
		C3.6,15.3,4,16.8,4,18.5c0,1.9-0.5,3.6-1.4,5c-0.5,0.7-1.6,2.3-1.6,2.3c-0.6,1-0.9,2.1-0.8,3.3c0.1,2.8,1.8,5,5.1,7
		c0.2,0.1,0.4,0.2,0.5,0.3c0.3,0.2,0.7,0.4,1,0.5c0.6,0.3,1.9,0.7,3,0.8c0.5,0,1.6,0.2,2,0.3c0.2,0,0.4,0.1,0.6,0.1
		c0.3,0.1,0.6,0.2,0.9,0.4c0.7,0.4,1.2,1.1,1.2,2c0,0.2,0,0.4-0.1,0.5c-0.2,0.7-0.8,1.3-1.6,1.3c-0.3,0-0.5-0.1-0.7-0.2
		c-0.3-0.1-0.4-0.4-0.4-0.7c0,0,0-0.1,0-0.2c0-0.1-0.1-0.3-0.2-0.3c-0.1,0-0.2,0.1-0.2,0.3c0,0,0,0.1,0,0.2c0,0.5,0.2,0.9,0.6,1.1
		c0.3,0.2,0.7,0.3,1,0.3c1.1,0,2-0.8,2.1-1.9c0-0.1,0-0.3,0-0.4c0-1-0.6-2-1.4-2.4c-0.2-0.1-0.5-0.2-0.7-0.3c-0.1,0-0.2-0.1-0.3-0.1
		c-0.9-0.2-0.9-0.2-3.4-0.6c-1.2-0.2-2.2-0.6-3-1c-0.2-0.1-0.5-0.3-0.8-0.5c-1.8-1.2-3.6-2.5-3.8-5.2c-0.1-1.5,0.3-2.8,0.8-3.6
		l1.2-1.9c0.2-0.3,0.3-0.7,0.5-1c0.7-1.7,1.1-3.7,1.1-5.8c0-2.9-0.8-5.6-2-7.5c-0.6-0.8-0.9-1.7-1-2.6C2.1,6.3,3.3,5,5,5
		c1.7,0,1.8,0.1,6.8,1.8c1.2,0.4,2.4,0.3,3.1,0.1c0.3,0,0.6-0.1,0.9-0.4l0.8-0.8c0.1-0.1,0.2,0,0.1,0.1c0,0-0.8,1.2-0.9,1.3
		c0,0-0.8,1-0.2,1.6c0,0,0.6,0.6,1.6,0c0,0,0.4-0.2,0.9-0.2h0c0.5,0,0.9,0.2,0.9,0.2c1,0.6,1.6,0,1.6,0C21.1,8.1,20.3,7,20.3,7
		c-0.1-0.1-0.9-1.3-0.9-1.3c0-0.2,0.1-0.1,0.1-0.1l0.8,0.8c0.3,0.3,0.6,0.4,0.9,0.4c0.7,0.2,1.8,0.3,3.1-0.1c5-1.6,5.1-1.8,6.8-1.8
		c1.7,0,2.9,1.2,2.8,2.8c0,0.9-0.4,1.8-1,2.6c-1.2,1.9-2,4.6-2,7.5c0,2.1,0.4,4.2,1.1,5.8c0.2,0.3,0.3,0.6,0.5,1l1.2,1.9
		c0.5,0.9,1,2.1,0.8,3.6c-0.2,2.8-2,4.1-3.8,5.2c-0.3,0.2-0.6,0.4-0.8,0.5c-0.7,0.4-1.8,0.8-3,1c-2.5,0.4-2.5,0.4-3.4,0.6
		c-0.1,0-0.2,0.1-0.3,0.1c-0.3,0.1-0.5,0.2-0.7,0.3c-0.8,0.5-1.4,1.4-1.4,2.4c0,0.1,0,0.3,0,0.4c0.1,1.1,1,1.9,2.1,1.9
		c0.4,0,0.7-0.1,1-0.3c0.4-0.2,0.6-0.6,0.6-1.1c0-0.1,0-0.1,0-0.2c0-0.1-0.1-0.3-0.2-0.3c-0.1,0-0.2,0.1-0.2,0.3c0,0,0,0.1,0,0.2
		c0,0.3-0.2,0.6-0.4,0.7c-0.2,0.1-0.5,0.2-0.7,0.2c-0.8,0-1.4-0.6-1.6-1.3c0-0.2-0.1-0.3-0.1-0.5c0-0.9,0.5-1.6,1.1-2
		c0.3-0.2,0.6-0.3,0.9-0.4c0.2-0.1,0.4-0.1,0.6-0.1c0.4-0.1,1.5-0.3,2-0.3c1-0.1,2.3-0.5,3-0.8c0.3-0.1,0.7-0.4,1-0.5
		C30.6,36.3,30.8,36.2,30.9,36.1z M21.6,6.1c0,0-0.4,0.4-1.1-0.1c0,0-0.7-0.5-1-0.9c0,0-0.2-0.3-0.4-0.1c0,0-0.2,0.1,0,0.5
		c0,0,0.8,1.5,1,1.9c0,0,0.2,0.5-0.1,0.8c0,0-0.5,0.4-1,0c0,0-0.4-0.4-0.8-0.4h0c-0.4,0-0.8,0.4-0.8,0.4c-0.5,0.5-1,0-1,0
		c-0.3-0.3-0.1-0.8-0.1-0.8c0.1-0.4,1-1.9,1-1.9c0.2-0.4,0-0.5,0-0.5c-0.2-0.1-0.4,0.1-0.4,0.1c-0.3,0.4-1,0.9-1,0.9
		c-0.7,0.5-1.1,0.1-1.1,0.1c-0.4-0.3-0.1-1.1,0-1.4c0.2-0.7-0.1-1.4-0.1-1.4c-0.1-0.6,0.1-0.7,0.1-0.7c0.4-0.3,0.8,0,0.8,0
		c0.5,0.3,1.4,1.2,1.4,1.2c0.3,0.3,0.6,0.1,0.6,0.1c0.4-0.3-0.2-1-0.4-1.2c-0.5-0.6-0.7-1-0.7-1c-0.2-0.6,0.1-0.8,0.1-0.8
		c0.4-0.3,0.9-0.1,0.9-0.1c0.5,0.2,0.8,0.2,0.8,0.2h0c0,0,0.3,0,0.8-0.2c0,0,0.5-0.2,0.9,0.1c0,0,0.4,0.2,0.1,0.8c0,0-0.2,0.4-0.7,1
		c-0.2,0.2-0.8,0.9-0.4,1.2c0,0,0.3,0.3,0.6-0.1c0,0,0.9-0.9,1.4-1.2c0,0,0.5-0.3,0.8,0c0,0,0.2,0.1,0.1,0.7c0,0-0.3,0.7-0.1,1.4
		C21.6,5,22,5.8,21.6,6.1z"/>
	<path class="st0" d="M21.9,31.7c1.6,0,3.1-0.7,3.1-3.1c0-1.8-1.7-3.1-3.3-3.1l-3.7,0l-3.6,0c-0.6,0-1-0.5-1-1.1
		c0-0.6,0.5-1.1,1-1.1l3.6,0l4.3,0c0.3,0,0.5,0.1,0.7,0.3l0.4,0.3c0,0,0.1,0,0.1,0c0.2,0,0.3-0.1,0.3-0.3c0-0.1,0-0.2-0.1-0.2
		l-1-1.3c0-0.1-0.1-0.1-0.2-0.1c-0.1,0-0.2,0.1-0.2,0.2c-0.1,0.2-0.3,0.4-0.6,0.4l-3.8,0l-3.7,0c-1.3,0-2.4,1.1-2.4,2.5
		c0,1.4,1.1,2.5,2.4,2.5l3.7,0l3,0c1.4,0,2.2,0.6,2.2,1.6c0,0.9-0.7,1.7-1.8,1.7h-3.4h-4.6c-0.3,0-0.5-0.2-0.5-0.5
		c0-0.1,0-0.2,0.1-0.3c0,0,0-0.1,0-0.2c0-0.2-0.1-0.3-0.3-0.3c-0.1,0-0.1,0-0.2,0.1L11,31.4c-0.1,0.1-0.1,0.1-0.1,0.2
		c0,0.2,0.1,0.3,0.3,0.3c0.1,0,0.1,0,0.2-0.1c0.1-0.1,0.2-0.1,0.3-0.1l0.2,0h6.2H21.9z"/>
</g>
</svg>
