<?xml version="1.0" encoding="utf-8"?>
<!-- Generator: Adobe Illustrator 23.0.2, SVG Export Plug-In . SVG Version: 6.00 Build 0)  -->
<svg version="1.1" id="Layer_1" xmlns="http://www.w3.org/2000/svg" xmlns:xlink="http://www.w3.org/1999/xlink" x="0px" y="0px"
	 viewBox="0 0 120 120" style="enable-background:new 0 0 120 120;" xml:space="preserve">
<style type="text/css">
	.st0{fill:none;stroke:#A67E5C;stroke-width:3;stroke-linecap:round;stroke-linejoin:round;}
</style>
<g>
	<path class="st0" d="M21.5,69.2h-3c-4.7,0-8.4-3.7-8.4-8.4V28.4c0-4.7,3.7-8.4,8.4-8.4h63c4.7,0,8.4,3.7,8.4,8.4v13.9"/>
	<line class="st0" x1="10.6" y1="32.3" x2="89.4" y2="32.3"/>
	<g>
		<path class="st0" d="M101.5,50.8c4.7,0,8.4,3.7,8.4,8.4v32.4c0,4.7-3.7,8.4-8.4,8.4h-63c-4.7,0-8.4-3.7-8.4-8.4V59.2
			c0-4.7,3.7-8.4,8.4-8.4C38.5,50.8,101.5,50.8,101.5,50.8z"/>
	</g>
	<g>
		<polyline class="st0" points="67.1,71.6 74.6,64 74.6,86.7 		"/>
		<ellipse class="st0" cx="91.4" cy="75.5" rx="7.6" ry="11.4"/>
		<line class="st0" x1="41" y1="71.6" x2="56.1" y2="86.7"/>
		<line class="st0" x1="41" y1="86.7" x2="56.1" y2="71.6"/>
	</g>
</g>
</svg>
